<?xml version="1.0" encoding="UTF-8"?>
<!DOCTYPE svg PUBLIC "-//W3C//DTD SVG 1.1//EN" "http://www.w3.org/Graphics/SVG/1.1/DTD/svg11.dtd">
<!-- Creator: CorelDRAW 2018 (64-Bit) -->
<svg xmlns="http://www.w3.org/2000/svg" xml:space="preserve" width="106.273mm" height="19.8173mm" version="1.1" style="shape-rendering:geometricPrecision; text-rendering:geometricPrecision; image-rendering:optimizeQuality; fill-rule:evenodd; clip-rule:evenodd"
viewBox="0 0 10627.32 1981.73"
 xmlns:xlink="http://www.w3.org/1999/xlink">
 <defs>
  <style type="text/css">
   <![CDATA[
    .str0 {stroke:#ED3237;stroke-width:20;stroke-miterlimit:2.61313}
    .fil3 {fill:#00AFEF}
    .fil1 {fill:#FEFEFE;fill-rule:nonzero}
    .fil2 {fill:#373435;fill-rule:nonzero}
    .fil0 {fill:#ED3237;fill-rule:nonzero}
    .fil4 {fill:#00AFEF;fill-rule:nonzero}
   ]]>
  </style>
 </defs>
 <g id="Layer_x0020_1">
  <metadata id="CorelCorpID_0Corel-Layer"/>
  <g id="_2418578681776">
   <g>
    <path class="fil0 str0" d="M4801.42 1568.53c-43.91,24.02 -79.68,55.25 -114.37,88.41 -10.64,10.17 -30.95,19.47 -28.39,39.75 1.31,1.82 2.07,2.82 4.06,4.05 13.64,10.01 35.04,-10.17 45.42,-15.41 33.51,-16.91 62.91,-42.2 85.17,-70.57 7.69,-9.8 20.59,-18.41 21.09,-34.88 -1.62,-2.97 -3.24,-5.95 -4.87,-8.92 -2.7,-0.81 -5.4,-1.62 -8.11,-2.43zm355.29 -180.08c28.72,-0.71 60.03,10.43 66.51,30.82 -22.71,20.28 -45.42,40.56 -68.13,60.84 -42.96,34.6 -87.57,85.35 -120.87,129.78 -11.72,15.66 -51.88,52.34 -46.23,75.44 27.57,18.18 76.01,-36.8 91.66,-51.1 79.55,-72.69 147.79,-157.56 236.05,-221.45 26.16,-0.87 62.81,5.31 69.75,25.96 -21,28.42 -58.76,45.52 -84.36,69.76 -38.7,36.65 -74.35,75.75 -108.69,116.81 -11.3,13.51 -56.84,65.59 -28.39,82.73 24.52,14.77 46.33,-8.94 60.02,-20.28 46.84,-38.77 88.09,-90.03 126.54,-137.08 15.32,-18.74 68.79,-11.76 81.12,8.11 -3.46,14.68 -21.74,25.49 -30.82,35.69 -21.1,23.69 -44.34,45.66 -62.46,72.19 -5.97,8.75 -26.64,28.76 -22.71,42.18 1.48,3.02 2.51,3.59 5.67,4.87 16.97,4.78 53.5,-21.21 64.9,-28.39 37.48,-23.64 64.55,-54.98 98.15,-81.93 9.88,-7.93 17.96,-26.11 30.82,-30.01 16.37,-4.96 59.93,12.27 69.76,18.66 0.54,3.51 1.08,7.03 1.62,10.54 -55.85,45.14 -105.79,100.4 -154.12,153.31 -11.84,12.96 -47.81,46.25 -52.72,61.65 0.27,0.27 0.54,0.54 0.81,0.81 20.28,3.78 40.56,7.57 60.83,11.35 44.07,11.27 85.5,20.08 124.11,34.88 12.37,4.75 53.17,13.22 49.48,30.83 -2.31,11.05 -13.57,36.47 -30.82,32.44 -14.33,-4.86 -28.66,-9.73 -42.99,-14.6 -58.14,-18.42 -134.29,-41.35 -201.17,-46.23 -13.52,19.19 -27.04,38.39 -40.56,57.59 -8.22,12.7 -13.98,28.36 -25.14,38.12 -19.13,-4.28 -52.2,-0.07 -61.65,-16.22 10.54,-20.82 21.09,-41.64 31.63,-62.46 5.39,-8.86 14.34,-17.46 17.04,-28.39 -30.28,-2.7 -60.57,-5.41 -90.85,-8.11 -21.9,-1.08 -43.81,-2.16 -65.71,-3.25 -17.57,0 -35.15,0 -52.72,0 -38.05,0 -77.28,-2.17 -111.94,3.25 -39.74,2.7 -79.5,5.41 -119.24,8.11 -30.01,3.52 -60.03,7.03 -90.04,10.55 -70.95,12.75 -143.8,19.85 -212.52,33.25 -23.79,3.79 -47.59,7.57 -71.38,11.36 -26.19,5.85 -57.1,14.89 -84.36,7.3 -11.05,-3.07 -46.63,-16.37 -42.99,-28.39 6.27,-11.99 26.18,-11.27 40.55,-15.41 40.91,-11.79 84.55,-19.9 128.98,-28.39 166.24,-31.78 358.6,-51.1 556.45,-51.11 62.24,0 124.44,-3.31 181.7,5.68 22.98,1.89 45.97,3.79 68.95,5.68 12.97,-18.11 25.96,-36.23 38.93,-54.35 -37.98,21.87 -50.42,6.11 -73.81,-14.6 -16.14,3.33 -34.35,16.93 -53.54,21.9 -49.02,12.7 -108.17,-14.41 -111.94,-54.34 -10.31,1.84 -18.65,10.73 -26.77,15.41 -27.92,16.12 -82.57,40.43 -116.8,15.41 -11.74,-8.58 -16.08,-23.47 -23.53,-36.5 -31.58,16.93 -103.33,71.96 -156.55,60.84 -8.92,-3.79 -17.84,-7.58 -26.77,-11.36 -5.73,-4.32 -7.03,-13.89 -14.6,-16.22 -14.32,8.41 -28.9,18.86 -47.86,21.9 -41.79,6.68 -103.01,-62.33 -88.41,-103.83 6.29,-17.88 27.62,-31.45 38.93,-45.42 25.5,-31.51 104.13,-92.02 150.88,-99.77 37.49,-6.22 80.23,39.36 90.85,61.64 5.7,11.96 6.2,38.6 -0.81,49.48 -11.49,17.84 -70.52,60.07 -72.2,76.25 2.13,3.27 3.03,6.89 6.49,8.92 11.04,4.13 25.01,-7.82 31.64,-12.16 24.35,-15.98 42.9,-36.58 64.89,-54.35 91.47,-73.94 157.79,-174.3 251.46,-246.59zm-506.97 -68.14c77.2,-0.69 152.67,-1.12 215.76,12.17 10.82,1.89 21.64,3.79 32.45,5.68 7.22,4.93 17.51,43.79 12.17,54.35 -53.53,-2.98 -107.08,-5.95 -160.61,-8.93 -11.12,0.7 -31.91,-5.01 -42.99,0 -16.49,22.17 -32.99,44.35 -49.48,66.52 -48.12,66.33 -92.4,132.96 -137.09,203.6 -15.77,24.92 -37.77,56.16 -45.42,86.79 -20.98,5.47 -63.87,7.96 -82.74,-1.62 -1.13,-1.56 -0.08,-0.49 -1.62,-1.63 -0.15,-25.51 38.93,-80.25 51.1,-99.77 38.81,-62.24 81.37,-118.95 122.48,-178.45 16.77,-24.27 39.48,-46.5 53.54,-73 -0.27,-0.27 -0.54,-0.54 -0.81,-0.81 -65.25,0.02 -124.91,13.15 -179.27,22.71 -17.58,3.09 -62.71,-41.02 -54.34,-55.16 31.36,-5.95 62.73,-11.9 94.09,-17.85 28.12,-3.24 56.24,-6.49 84.36,-9.73 29.47,-1.62 58.95,-3.24 88.42,-4.87z"/>
    <path class="fil1" d="M4780.03 1544.71c-43.92,24.03 -79.69,55.26 -114.38,88.42 -10.64,10.17 -30.95,19.46 -28.39,39.74 1.31,1.83 2.08,2.83 4.06,4.06 13.65,10.01 35.04,-10.18 45.42,-15.41 33.51,-16.92 62.92,-42.2 85.17,-70.57 7.7,-9.81 20.59,-18.41 21.09,-34.88 -1.62,-2.98 -3.24,-5.95 -4.86,-8.92 -2.71,-0.82 -5.41,-1.63 -8.11,-2.44zm355.28 -180.07c28.72,-0.71 60.04,10.43 66.52,30.82 -22.71,20.28 -45.43,40.56 -68.14,60.84 -42.96,34.6 -87.57,85.34 -120.86,129.78 -11.73,15.65 -51.88,52.34 -46.24,75.44 27.57,18.17 76.01,-36.81 91.66,-51.1 79.56,-72.69 147.79,-157.56 236.05,-221.45 26.16,-0.87 62.81,5.31 69.76,25.96 -21.01,28.42 -58.76,45.52 -84.36,69.76 -38.71,36.65 -74.35,75.75 -108.7,116.8 -11.3,13.52 -56.84,65.6 -28.39,82.74 24.52,14.77 46.34,-8.95 60.03,-20.28 46.83,-38.77 88.08,-90.03 126.54,-137.08 15.31,-18.74 68.79,-11.76 81.11,8.11 -3.46,14.68 -21.74,25.49 -30.82,35.69 -21.1,23.69 -44.33,45.66 -62.46,72.19 -5.97,8.74 -26.64,28.76 -22.71,42.18 1.48,3.02 2.51,3.58 5.68,4.87 16.96,4.77 53.5,-21.21 64.89,-28.39 37.48,-23.64 64.55,-54.98 98.15,-81.93 9.89,-7.93 17.96,-26.12 30.82,-30.01 16.37,-4.96 59.93,12.27 69.76,18.66 0.54,3.51 1.08,7.03 1.62,10.54 -55.85,45.14 -105.78,100.4 -154.12,153.31 -11.84,12.96 -47.81,46.25 -52.72,61.64 0.27,0.27 0.54,0.54 0.81,0.81 20.28,3.79 40.56,7.58 60.84,11.36 44.07,11.27 85.49,20.08 124.1,34.88 12.37,4.74 53.17,13.22 49.48,30.82 -2.31,11.06 -13.57,36.47 -30.82,32.45 -14.33,-4.87 -28.66,-9.73 -42.99,-14.6 -58.14,-18.42 -134.28,-41.36 -201.17,-46.24 -13.52,19.2 -27.04,38.4 -40.56,57.59 -8.21,12.71 -13.98,28.37 -25.14,38.13 -19.13,-4.29 -52.2,-0.08 -61.65,-16.22 10.55,-20.82 21.09,-41.64 31.64,-62.46 5.38,-8.86 14.33,-17.47 17.03,-28.39 -30.28,-2.71 -60.57,-5.41 -90.85,-8.11 -21.9,-1.09 -43.8,-2.17 -65.7,-3.25 -17.58,0 -35.15,0 -52.73,0 -38.04,0 -77.28,-2.18 -111.94,3.25 -39.74,2.7 -79.49,5.4 -119.24,8.11 -30.01,3.51 -60.03,7.03 -90.04,10.54 -70.95,12.75 -143.79,19.86 -212.52,33.26 -23.79,3.78 -47.59,7.57 -71.38,11.36 -26.19,5.85 -57.1,14.88 -84.36,7.3 -11.05,-3.08 -46.62,-16.37 -42.99,-28.39 6.28,-11.99 26.18,-11.27 40.56,-15.42 40.9,-11.78 84.54,-19.89 128.97,-28.39 166.24,-31.78 358.61,-51.1 556.45,-51.1 62.24,0 124.44,-3.31 181.7,5.68 22.98,1.89 45.97,3.79 68.95,5.68 12.98,-18.12 25.96,-36.24 38.94,-54.35 -37.99,21.87 -50.43,6.11 -73.82,-14.6 -16.14,3.33 -34.35,16.93 -53.54,21.9 -49.02,12.7 -108.17,-14.42 -111.94,-54.35 -10.3,1.84 -18.65,10.73 -26.76,15.42 -27.93,16.12 -82.58,40.42 -116.81,15.41 -11.74,-8.58 -16.08,-23.47 -23.52,-36.5 -31.59,16.92 -103.34,71.96 -156.56,60.83 -8.92,-3.78 -17.84,-7.57 -26.76,-11.35 -5.74,-4.32 -7.04,-13.9 -14.61,-16.23 -14.31,8.42 -28.9,18.87 -47.85,21.9 -41.79,6.69 -103.02,-62.32 -88.42,-103.82 6.29,-17.89 27.63,-31.45 38.94,-45.43 25.49,-31.51 104.12,-92.01 150.87,-99.77 37.5,-6.22 80.23,39.37 90.85,61.65 5.7,11.96 6.2,38.59 -0.81,49.48 -11.49,17.84 -70.52,60.07 -72.19,76.25 2.12,3.26 3.03,6.89 6.49,8.92 11.03,4.13 25,-7.82 31.63,-12.17 24.35,-15.97 42.91,-36.57 64.89,-54.34 91.47,-73.95 157.79,-174.31 251.46,-246.59zm-506.97 -68.14c77.21,-0.69 152.67,-1.12 215.77,12.17 10.81,1.89 21.63,3.78 32.44,5.68 7.22,4.93 17.51,43.79 12.17,54.34 -53.53,-2.97 -107.08,-5.95 -160.61,-8.92 -11.12,0.7 -31.91,-5.01 -42.99,0 -16.49,22.17 -32.99,44.35 -49.48,66.51 -48.11,66.33 -92.4,132.97 -137.09,203.6 -15.76,24.92 -37.77,56.17 -45.42,86.79 -20.98,5.48 -63.87,7.96 -82.74,-1.62 -1.13,-1.56 -0.08,-0.48 -1.62,-1.62 -0.15,-25.51 38.93,-80.25 51.1,-99.77 38.81,-62.24 81.38,-118.95 122.49,-178.45 16.76,-24.27 39.47,-46.5 53.53,-73.01 -0.27,-0.27 -0.54,-0.54 -0.81,-0.81 -65.24,0.03 -124.91,13.16 -179.26,22.71 -17.59,3.1 -62.71,-41.01 -54.35,-55.15 31.36,-5.95 62.73,-11.9 94.09,-17.85 28.12,-3.24 56.25,-6.49 84.36,-9.73 29.47,-1.62 58.95,-3.25 88.42,-4.87z"/>
    <path class="fil2" d="M4780.03 1544.71c-43.92,24.03 -79.69,55.26 -114.38,88.42 -10.64,10.17 -30.95,19.46 -28.39,39.74 1.31,1.83 2.08,2.83 4.06,4.06 13.65,10.01 35.04,-10.18 45.42,-15.41 29.92,-17.88 58.72,-43.32 85.17,-70.57 7.7,-9.81 20.59,-18.41 21.09,-34.88 -1.62,-2.98 -3.24,-5.95 -4.86,-8.92 -2.71,-0.82 -5.41,-1.63 -8.11,-2.44zm355.28 -180.07c28.72,-0.71 60.04,10.43 66.52,30.82 -22.71,20.28 -45.43,40.56 -68.14,60.84 -42.96,34.6 -87.57,85.34 -120.86,129.78 -11.73,15.65 -51.88,52.34 -46.24,75.44 27.57,18.17 76.01,-36.81 91.66,-51.1 79.56,-72.69 147.79,-157.56 236.05,-221.45 26.16,-0.87 62.81,5.31 69.76,25.96 -21.01,28.42 -58.76,45.52 -84.36,69.76 -38.71,36.65 -74.35,75.75 -108.7,116.8 -11.3,13.52 -56.84,65.6 -28.39,82.74 24.52,14.77 46.34,-8.95 60.03,-20.28 46.83,-38.77 88.08,-90.03 126.54,-137.08 15.31,-18.74 68.79,-11.76 81.11,8.11 -3.46,14.68 -21.74,25.49 -30.82,35.69 -21.1,23.69 -44.33,45.66 -62.46,72.19 -5.97,8.74 -26.64,28.76 -22.71,42.18 1.48,3.02 2.51,3.58 5.68,4.87 16.96,4.77 53.5,-21.21 64.89,-28.39 37.48,-23.64 64.55,-54.98 98.15,-81.93 9.89,-7.93 17.96,-26.12 30.82,-30.01 16.37,-4.96 59.93,12.27 69.76,18.66 0.54,3.51 1.08,7.03 1.62,10.54 -55.85,45.14 -105.78,100.4 -154.12,153.31 -11.84,12.96 -47.81,46.25 -52.72,61.64 0.27,0.27 0.54,0.54 0.81,0.81 20.28,3.79 40.56,7.58 60.84,11.36 44.07,11.27 85.49,20.08 124.1,34.88 12.37,4.74 53.17,13.22 49.48,30.82 -2.31,11.06 -13.57,36.47 -30.82,32.45 -14.33,-4.87 -28.66,-9.73 -42.99,-14.6 -58.14,-18.42 -134.28,-41.36 -201.17,-46.24 -13.52,19.2 -27.04,38.4 -40.56,57.59 -8.21,12.71 -13.98,28.37 -25.14,38.13 -19.13,-4.29 -52.2,-0.08 -61.65,-16.22 10.55,-20.82 21.09,-41.64 31.64,-62.46 5.38,-8.86 14.33,-17.47 17.03,-28.39 -30.28,-2.71 -60.57,-5.41 -90.85,-8.11 -21.9,-1.09 -43.8,-2.17 -65.7,-3.25 -17.58,0 -35.15,0 -52.73,0 -38.04,0 -77.28,-2.18 -111.94,3.25 -39.74,2.7 -79.49,5.4 -119.24,8.11 -30.01,3.51 -60.03,7.03 -90.04,10.54 -70.95,12.75 -143.79,19.86 -212.52,33.26 -23.79,3.78 -47.59,7.57 -71.38,11.36 -26.19,5.85 -57.1,14.88 -84.36,7.3 -11.05,-3.08 -46.62,-16.37 -42.99,-28.39 6.28,-11.99 26.18,-11.27 40.56,-15.42 40.9,-11.78 84.54,-19.89 128.97,-28.39 166.24,-31.78 358.61,-51.1 556.45,-51.1 62.24,0 124.44,-3.31 181.7,5.68 22.98,1.89 45.97,3.79 68.95,5.68 12.98,-18.12 25.96,-36.24 38.94,-54.35 -37.99,21.87 -50.43,6.11 -73.82,-14.6 -16.14,3.33 -34.35,16.93 -53.54,21.9 -49.02,12.7 -108.17,-14.42 -111.94,-54.35 -10.3,1.84 -18.65,10.73 -26.76,15.42 -27.93,16.12 -82.58,40.42 -116.81,15.41 -11.74,-8.58 -16.08,-23.47 -23.52,-36.5 -31.59,16.92 -103.34,71.96 -156.56,60.83 -8.92,-3.78 -17.84,-7.57 -26.76,-11.35 -5.74,-4.32 -7.04,-13.9 -14.61,-16.23 -14.31,8.42 -28.9,18.87 -47.85,21.9 -41.79,6.69 -103.02,-62.32 -88.42,-103.82 6.29,-17.89 27.63,-31.45 38.94,-45.43 25.49,-31.51 104.12,-92.01 150.87,-99.77 37.5,-6.22 80.23,39.37 90.85,61.65 5.7,11.96 6.2,38.59 -0.81,49.48 -11.49,17.84 -70.52,60.07 -72.19,76.25 2.12,3.26 3.03,6.89 6.49,8.92 11.03,4.13 25,-7.82 31.63,-12.17 24.35,-15.97 42.91,-36.57 64.89,-54.34 91.47,-73.95 157.79,-174.31 251.46,-246.59zm-506.97 -68.14c77.21,-0.69 152.67,-1.12 215.77,12.17 10.81,1.89 21.63,3.78 32.44,5.68 7.22,4.93 17.51,43.79 12.17,54.34 -53.53,-2.97 -107.08,-5.95 -160.61,-8.92 -11.12,0.7 -31.91,-5.01 -42.99,0 -16.49,22.17 -32.99,44.35 -49.48,66.51 -48.11,66.33 -92.4,132.97 -137.09,203.6 -15.76,24.92 -37.77,56.17 -45.42,86.79 -20.98,5.48 -63.87,7.96 -82.74,-1.62 -1.13,-1.56 -0.08,-0.48 -1.62,-1.62 -0.15,-25.51 38.93,-80.25 51.1,-99.77 38.81,-62.24 81.38,-118.95 122.49,-178.45 16.76,-24.27 39.47,-46.5 53.53,-73.01 -0.27,-0.27 -0.54,-0.54 -0.81,-0.81 -65.24,0.03 -124.91,13.16 -179.26,22.71 -17.59,3.1 -62.71,-41.01 -54.35,-55.15 31.36,-5.95 62.73,-11.9 94.09,-17.85 28.12,-3.24 56.25,-6.49 84.36,-9.73 29.47,-1.62 58.95,-3.25 88.42,-4.87z"/>
   </g>
   <g>
    <polygon class="fil3" points="5.49,1592.14 3132.58,1592.14 3132.58,1696.51 5.49,1696.51 "/>
    <polygon class="fil3" points="7546.9,1592.14 10576.43,1592.14 10576.43,1696.51 7546.9,1696.51 "/>
    <path class="fil3" d="M3231.37 1743.68l0 -403.77 0 0 -2.28 0c-33.5,0 -59.37,10.68 -77.86,32.17 -18.49,21.49 -29.53,53.77 -33.22,96.99l-19.48 0 0 -80.28 0 -80.16 0 0 181.46 0 0 0 181.46 0 0 0 0 80.16 0 80.28 -17.51 0c-3.67,-43.22 -14.71,-75.5 -33.2,-96.99 -18.39,-21.49 -44.36,-32.17 -77.77,-32.17l-4.07 0 0 0 0 403.77c0,22.23 3.69,38.07 11.04,47.24 7.45,9.17 20.19,13.81 38.18,13.81l5.58 0 0 21.74 -102.22 0 -102.21 0 0 -21.74 5.25 0c17.22,0 29.34,-4.64 36.41,-13.93 6.97,-9.17 10.44,-24.89 10.44,-47.12zm287.75 12.07l0 -376.38c0,-14.82 -2.8,-26.4 -8.45,-35.05 -5.68,-8.55 -13.73,-13.18 -24.19,-13.95l0 -21.74 46.96 0 47.12 0 20.38 0 0 220.1 0 0 0 0c5.08,-11.05 10.73,-20.97 17.2,-29.89 18.08,-23.25 42.15,-34.92 72.31,-34.92 23.64,0 42.03,9.91 55.16,29.77 13.15,19.97 19.69,47.73 19.69,83.53l0 178.53c0,16.71 2.49,28.75 7.44,36.04 4.89,7.41 13.44,11.68 25.46,12.94l0 21.74 -73.67 0 -73.68 0 0 -21.74c12.05,-1.26 20.48,-5.53 25.37,-12.94 4.86,-7.29 7.26,-19.33 7.26,-36.04l0 -189.96c0,-15.44 -2.9,-27.88 -8.65,-37.3 -5.68,-9.42 -13.34,-14.21 -22.87,-14.21 -14.33,0 -27.45,8.43 -39.38,25.38 -4.48,6.67 -8.36,13.56 -11.64,20.6l0 0 0 195.49c0,16.71 2.49,28.75 7.45,36.04 4.89,7.41 13.41,11.68 25.46,12.94l0 21.74 -73.68 0 -73.69 0 0 -21.74c12.04,-1.26 20.5,-5.53 25.38,-12.94 4.87,-7.29 7.26,-19.33 7.26,-36.04zm429.62 81.03c-36.19,0 -66.11,-17.72 -90.08,-53.02 -23.86,-35.29 -35.79,-79.79 -35.79,-133.3 0,-53.64 11.33,-98.23 34.11,-133.52 22.66,-35.32 51.28,-53.02 85.89,-53.02 34.61,0 63.26,15.56 85.91,46.72 22.78,31.16 34.11,70.22 34.11,117.34l-0.09 12.57 0 0 -158.3 0 0 0c1.7,44.96 8.36,79.01 19.78,102.39 13.03,25.75 33.42,38.69 61.18,38.69 12.21,0 23.76,-4.66 34.49,-13.83 10.73,-9.17 21.07,-23.25 31.01,-42.21l11.93 12.94c-11.83,31.92 -27.54,56.29 -47.04,72.99 -19.47,16.83 -41.94,25.26 -67.11,25.26zm41.58 -225.26l0 0 -0.29 -8.4c0,-41.22 -3.21,-70.12 -9.56,-86.7 -6.46,-16.59 -17.5,-24.87 -33.22,-24.87 -14.32,0 -25.14,10.81 -32.31,32.4 -6.56,19.85 -10.03,49 -10.15,87.57l0 0 85.53 0zm1761.46 214.95l0 -21.74 5.58 0c17.8,0 30.42,-4.64 37.87,-13.81 7.35,-9.17 11.04,-25.01 11.04,-47.24l0 -352.26c0,-22.24 -3.69,-38.05 -11.04,-47.22 -7.45,-9.17 -20.19,-13.83 -38.18,-13.83l-5.56 0 0 -21.74 152.31 0 0 0 195.2 0 0 0 0 78.03 0 78 -16.33 0c-7.54,-49.74 -20.77,-83.03 -39.47,-99.74 -18.68,-16.7 -52.48,-25.01 -101.2,-25.01l-4.09 0c-13.61,0 -22.66,2.9 -27.24,8.68 -4.57,5.77 -6.87,17.2 -6.87,34.43l0 162.67 0 0 7.26 0c28.93,0 49.41,-7.41 61.27,-22.11 11.83,-14.7 21.07,-44.22 27.64,-88.69l16.31 0 0 128.52 0 128.77 -16.31 0c-6.97,-46.11 -16.41,-76.89 -28.24,-92.33 -11.84,-15.47 -32.03,-23.25 -60.67,-23.25l-7.26 0 0 0 0 164.58c0,22.23 2.87,37.05 8.77,44.46 5.86,7.42 17.51,10.94 34.99,10.69 44.24,-0.28 77.46,-9.17 99.73,-26.65 22.16,-17.57 44.36,-52.77 66.52,-105.51l14.32 3.64 -12.84 79.14 -13.12 79.52 0 0 -198.37 0 0 0 -152.02 0zm439.58 -55.9l65.82 -98.99 0 0 -79.76 -151.4c-4.86,-8.77 -9.43,-15.07 -13.7,-18.71 -4.29,-3.64 -9.15,-5.53 -14.82,-5.53l-1.8 0 0 -21.74 75.88 0 76.07 0 0 21.74 -4.1 0c-13.89,0 -22.15,2.9 -24.74,8.8 -2.49,5.9 0.1,15.96 7.83,30.27l31.14 59.31 0 0 0 0 29.82 -44.62c13.44,-19.7 19.71,-33.53 18.9,-41.56 -0.7,-8.18 -8.65,-12.2 -23.86,-12.2l-4.67 0 0 -21.74 50.11 0 50.13 0 0 21.74 -2.59 0c-8.57,0 -17.22,3.65 -25.87,11.06 -8.64,7.28 -19.28,19.97 -31.92,37.94l-48.12 71.24 0 0 86.92 164.31c4.86,8.8 9.12,15.07 12.81,18.71 3.69,3.65 7.57,5.53 11.64,5.53l1.49 0 0 21.74 -73.77 0 -73.8 0 0 -21.74 4.1 0c14.01,0 22.25,-2.88 24.74,-8.8 2.49,-5.9 -0.1,-15.94 -7.83,-30.26l-38.4 -72.35 0 0 0 0 -10.15 14.94c-23.86,35.42 -37.08,60.28 -39.57,74.73 -2.59,14.45 4.98,21.74 22.68,21.74l5.56 0 0 21.74 -50.4 0 -50.61 0 0 -21.74 2.28 0c7.26,0 14.01,-2.63 20.38,-7.78 6.47,-5.16 13.82,-13.96 22.18,-26.38zm295.61 -225.63c0,-16.95 -2.39,-29.14 -7.26,-36.43 -4.88,-7.41 -13.34,-11.55 -25.36,-12.57l0 -21.74 46.94 0 47.12 0 20.38 0 0 40.85 0 0c19.59,-34.3 44.64,-51.38 75.18,-51.13 34.18,0 61.25,16.83 81.22,50.36 19.98,33.69 30.04,79.02 30.04,136.18 0,56.04 -11.04,101 -33.22,135.18 -22.18,34.04 -51.4,51.14 -87.69,51.14 -21.58,0 -39.97,-10.31 -55.28,-30.91 -3.59,-4.66 -6.97,-10.06 -10.25,-16.21l0 0 0 97.11c0,25.51 2.87,43.73 8.55,54.66 5.77,10.9 15.62,17.07 29.63,18.59l4.38 0 0 21.71 -78.37 0 -78.63 0 0 -21.71c12.02,-1.52 20.48,-5.93 25.36,-13.21 4.87,-7.42 7.26,-19.34 7.26,-35.8l0 -366.07zm129.94 246.6c17,0 30.03,-12.19 38.99,-36.43 8.93,-24.37 13.41,-59.91 13.41,-106.78 0,-47.12 -4.28,-82.91 -12.93,-107.28 -8.65,-24.51 -21.27,-36.68 -37.77,-36.68 -22.88,0 -39.47,20.35 -49.82,61.05l0 0 0 177.89 0 0c3.47,12.05 8.07,22.11 13.72,30.14 8.77,12.07 20.17,18.09 34.4,18.09zm290.94 45.24c-36.2,0 -66.11,-17.72 -90.09,-53.02 -23.85,-35.29 -35.78,-79.79 -35.78,-133.3 0,-53.64 11.33,-98.23 34.08,-133.52 22.69,-35.32 51.31,-53.02 85.92,-53.02 34.61,0 63.25,15.56 85.91,46.72 22.78,31.16 34.11,70.22 34.11,117.34l-0.1 12.57 0 0 -158.29 0 0 0c1.67,44.96 8.36,79.01 19.78,102.39 13.01,25.75 33.39,38.69 61.15,38.69 12.24,0 23.76,-4.66 34.49,-13.83 10.75,-9.17 21.1,-23.25 31.04,-42.21l11.93 12.94c-11.83,31.92 -27.55,56.29 -47.04,72.99 -19.47,16.83 -41.94,25.26 -67.11,25.26zm41.58 -225.26l0 0 -0.32 -8.4c0,-41.22 -3.18,-70.12 -9.55,-86.7 -6.45,-16.59 -17.49,-24.87 -33.2,-24.87 -14.32,0 -25.15,10.81 -32.31,32.4 -6.56,19.85 -10.06,49 -10.16,87.57l0 0 85.54 0zm126.75 144.23l0 -210.81c0,-16.95 -2.4,-29.14 -7.26,-36.43 -4.89,-7.41 -13.34,-11.55 -25.37,-12.57l0 -21.74 46.93 0 47.16 0 20.38 0 0 65.84 0 0 0 0c3.66,-8.53 7.64,-16.71 11.93,-24.62 18.99,-34.3 41.05,-51.5 66.13,-51.5 14.39,0 26.25,5.28 35.68,15.81 9.44,10.56 14.11,23.87 14.11,40.08 0,15.47 -3.88,28.53 -11.52,39.06 -7.66,10.56 -17.1,15.84 -28.36,15.84 -4.48,0 -9.34,-2 -14.42,-5.9 -5.15,-3.89 -9.34,-8.67 -12.4,-14.32 -3.69,-6.92 -7.67,-12.69 -12.03,-17.33 -4.38,-4.66 -8.07,-7.04 -10.94,-7.04 -3.28,0 -6.78,1.12 -10.25,3.4 -10.26,6.52 -17.51,16.95 -21.68,31.28 -4.17,14.18 -6.25,35.67 -6.25,64.32l0 126.63c0,16.44 3.16,28.38 9.65,35.79 6.35,7.29 17.37,11.68 32.89,13.19l0 21.74 -78.35 0 -78.66 0 0 -21.74c12.03,-1.26 20.48,-5.53 25.37,-12.94 4.86,-7.29 7.26,-19.33 7.26,-36.04zm253.93 -8.43l0 -236.68 0 0 -31.42 0 0 -21.74c25.26,-21.34 45.14,-41.94 59.56,-61.79 14.52,-19.85 29.03,-46.5 43.55,-79.91l12.55 0 0 127 0 0 55.37 0 0 36.44 -55.37 0 0 0 0 227.51c0,15.97 2.06,27.14 6.15,33.54 4.07,6.3 11.14,9.54 21.18,9.54 5.65,0 10.85,-2.75 15.61,-8.15 4.77,-5.41 10.23,-14.82 16.5,-28.26l12.82 7.66c-8.14,26.99 -19.88,48.11 -34.99,63.3 -15.12,15.2 -32.12,22.88 -51.02,22.88 -22.47,0 -39.86,-7.93 -52.1,-23.87 -12.21,-15.84 -18.39,-38.19 -18.39,-67.47z"/>
    <path class="fil4" d="M410.66 608.47l0 308.44c0,60.17 3.6,97.97 11.17,113.65 7.27,15.65 20.41,27.99 39.17,37.22 19.03,9.22 53.43,13.97 103.77,13.97l0 30.24 -564.77 0 0 -30.24c51.46,0 86.17,-4.75 104.62,-14.25 18.18,-9.53 31.05,-22.11 38.32,-37.52 7.54,-15.1 11.2,-52.9 11.2,-113.07l0 -721.82c0,-60.18 -3.66,-97.97 -11.2,-113.63 -7.27,-15.68 -20.14,-27.98 -38.88,-37.24 -18.47,-9.23 -53.13,-13.98 -104.06,-13.98l0 -30.24 480.3 0c158.34,0 271.88,28.56 340.7,85.36 68.81,56.83 103.21,127.91 103.21,213 0,72.2 -22.08,134.06 -66.27,185.58 -44.22,51.2 -104.89,86.19 -182.39,104.95 -52.33,13.15 -140.45,19.58 -264.89,19.58zm0 -544.37l0 480.29c17.33,1.1 30.76,1.68 39.73,1.68 64.6,0 114.38,-19.89 149.34,-59.35 34.98,-39.75 52.31,-101.02 52.31,-184.16 0,-82.56 -17.33,-142.74 -52.31,-181.08 -34.96,-38.34 -87.27,-57.38 -156.64,-57.38l-32.43 0zm882.97 685.84l0 222.72c0,42.99 2.6,69.96 8.01,81.16 5.18,11.18 14.39,20 27.74,26.59 13.21,6.59 37.98,10 74.34,10l0 21.58 -406.39 0 0 -21.58c36.76,0 61.52,-3.41 74.71,-10.19 12.98,-6.81 22.19,-15.8 27.36,-26.81 5.42,-10.79 8.02,-37.76 8.02,-80.75l0 -515.58c0,-42.98 -2.6,-69.98 -8.02,-81.19 -5.17,-11.18 -14.38,-19.99 -27.76,-26.58 -13.19,-6.6 -37.95,-10 -74.31,-10l0 -21.59 368.83 0c96.1,0 166.25,6.59 210.78,20 44.57,13.18 80.71,37.79 108.9,73.36 28.19,35.78 42.17,77.59 42.17,125.76 0,58.56 -20.99,106.95 -63.14,145.13 -26.96,24.19 -64.76,42.38 -113.09,54.57l190.8 268.89c25,34.8 42.79,56.39 53.35,64.98 16,12.2 34.58,18.79 55.55,20l0 21.58 -249.96 0 -255.74 -362.05 -52.15 0zm0 -389.43l0 347.85 33.36 0c54.17,0 94.91,-5 121.69,-14.99 26.96,-9.81 48.14,-27.8 63.56,-53.78 15.37,-25.98 23.17,-59.77 23.17,-101.57 0,-60.56 -14.2,-105.33 -42.36,-134.14 -28.4,-28.98 -73.94,-43.37 -136.87,-43.37l-62.55 0zm873.94 3l0 323.26 15.8 0c50.34,0 86.89,-15.79 109.5,-47.37 22.56,-31.78 37.16,-78.36 43.34,-140.16l22.16 0 0 416.05 -22.16 0c-4.59,-45.4 -14.6,-82.37 -29.56,-111.38 -15,-28.78 -32.57,-48.17 -52.37,-58.17 -19.98,-10 -48.75,-14.99 -86.71,-14.99l0 223.7c0,43.59 1.78,70.37 5.6,80.17 3.61,9.81 10.57,17.8 20.78,24.01 10.2,6.18 26.57,9.39 49.13,9.39l47.38 0c74.12,0 133.47,-17.19 178.21,-51.58 44.57,-34.19 76.73,-86.57 96.29,-156.94l21.61 0 -35.75 252.49 -685.97 0 0 -21.58 26.39 0c22.98,0 41.56,-4.21 55.54,-12.39 10.2,-5.41 18,-14.8 23.6,-27.99 4.19,-9.42 6.4,-34.19 6.4,-73.99l0 -522.37c0,-35.98 -1.01,-57.98 -3.03,-66.16 -3.8,-13.81 -10.99,-24.42 -21.58,-31.8 -14.75,-10.99 -35.16,-16.4 -60.93,-16.4l-26.39 0 0 -21.59 664.39 0 0 234.91 -22.19 0c-11.38,-57.37 -27.18,-98.57 -47.77,-123.54 -20.36,-24.99 -49.34,-43.39 -86.89,-54.98 -21.79,-7.01 -62.77,-10.6 -122.91,-10.6l-81.91 0zm1044.79 478.39l216.57 -524.18 322.92 0 0 21.59 -25.8 0c-23.38,0 -42.15,4.2 -56.13,12.41 -9.8,5.39 -17.6,14.59 -23.57,27.39 -4.19,9.39 -6.4,33.97 -6.4,73.36l0 523.57c0,40.59 2.21,65.97 6.4,76.19 4.38,10.19 13.16,19.17 26.35,26.78 13.38,7.61 31.19,11.4 53.35,11.4l25.8 0 0 21.58 -414.62 0 0 -21.58 25.77 0c23.39,0 42.18,-4.21 56.16,-12.39 9.77,-5.41 17.57,-14.8 23.6,-27.99 4.17,-9.42 6.37,-34.19 6.37,-73.99l0 -588.53 -305.32 724.48 -13.96 0 -309.7 -719.29 0 559.36c0,38.98 0.98,63.17 3,72.18 4.99,19.39 15.97,35.38 32.96,47.76 16.99,12.2 43.55,18.41 79.91,18.41l0 21.58 -271.74 0 0 -21.58 8.22 0c17.57,0.38 33.95,-2.39 49.13,-8.41 15.39,-6.18 26.78,-14.2 34.56,-24.39 7.8,-10.19 14.01,-24.39 18.2,-42.79 0.8,-4.39 1.17,-24.17 1.17,-59.76l0 -502.59c0,-40.19 -2.18,-65.37 -6.37,-75.37 -4.41,-10 -13.19,-18.79 -26.38,-26.39 -13.38,-7.58 -31.16,-11.4 -53.35,-11.4l-25.18 0 0 -21.59 324.08 0 224 524.18zm1475.62 239.85l0 30.24 -581.29 0 0 -30.24 36.92 0c32.17,0 58.18,-5.87 77.76,-17.33 14.28,-7.58 25.16,-20.7 32.99,-39.19 5.87,-13.15 8.97,-47.87 8.97,-103.57l0 -731.32c0,-56.83 -3.1,-92.37 -8.97,-106.65 -6.15,-14.29 -18.18,-26.86 -36.65,-37.49 -18.15,-10.66 -43.05,-15.96 -74.1,-15.96l-36.92 0 0 -30.24 581.29 0 0 30.24 -36.92 0c-32.19,0 -58.2,5.88 -78.08,17.36 -13.96,7.55 -25.16,20.71 -33.55,39.16 -5.86,13.16 -8.97,47.88 -8.97,103.58l0 731.32c0,56.82 3.11,92.37 9.53,106.65 6.16,14.28 18.47,26.86 36.92,37.52 18.18,10.62 43.07,15.92 74.15,15.92l36.92 0zm336.82 -764.03l391.61 492.81 0 -341.67c0,-47.57 -6.77,-79.98 -20.36,-96.76 -18.82,-22.57 -50.16,-33.59 -94.33,-32.79l0 -21.59 262.17 0 0 21.59c-33.57,4.2 -55.95,9.8 -67.54,16.81 -11.6,6.78 -20.6,17.79 -27,33.37 -6.37,15.41 -9.55,41.8 -9.55,79.37l0 661.32 -19.99 0 -536.69 -661.73 0 505.39c0,45.79 10.37,76.58 31.39,92.56 20.76,16.01 44.72,24.01 71.5,24.01l18.79 0 0 21.58 -281.51 0 0 -21.58c43.74,-0.42 74.1,-9.4 91.3,-27 17.17,-17.58 25.77,-47.38 25.77,-89.57l0 -560.76 -16.99 -20.98c-16.77,-21.21 -31.58,-34.99 -44.56,-41.59 -12.79,-6.81 -31.37,-10.41 -55.52,-11.2l0 -21.59 281.51 0zm896.72 45.79l0 326.07 19.77 0c35.17,0 63.73,-5.2 86.13,-15.8 22.19,-10.6 40.98,-28.4 56.34,-53.39 15.4,-24.99 25.59,-58.78 30.15,-101.35l20.6 0 0 399.05 -20.6 0c-7.38,-75.39 -27.55,-125.16 -60.51,-149.14 -32.96,-24 -70.33,-36.01 -112.11,-36.01l-19.77 0 0 243.1c0,40.59 2.2,65.97 6.8,76.19 4.38,10.19 13.19,19.17 26.38,26.78 12.98,7.61 30.76,11.4 52.95,11.4l26.38 0 0 21.58 -415.23 0 0 -21.58 26.38 0c22.99,0 41.57,-4.21 55.55,-12.39 10.19,-5.41 18,-14.8 23.6,-27.99 4.16,-9.42 6.39,-34.19 6.39,-73.99l0 -522.37c0,-40.59 -2.23,-65.97 -6.39,-76.16 -4.44,-10.21 -13.01,-19.2 -26.2,-26.8 -12.98,-7.58 -30.76,-11.4 -52.95,-11.4l-26.38 0 0 -21.59 664.36 0 0 227.91 -23.97 0c-5.41,-53.59 -19.37,-93.16 -41.98,-118.95 -22.35,-25.79 -54.73,-43.78 -97.27,-54.39 -23.57,-5.79 -66.96,-8.78 -130.1,-8.78l-68.32 0zm860.36 -56.78c126.49,-4.61 229.18,32.19 308.29,110.74 78.91,78.39 118.51,176.55 118.51,294.49 0,100.77 -29.38,189.51 -88.36,265.89 -78.1,101.57 -188.41,152.33 -330.85,152.33 -142.87,0 -253.17,-48.37 -331.3,-145.32 -61.74,-76.38 -92.5,-167.13 -92.5,-272.3 0,-117.96 40.16,-216.12 120.29,-294.87 80.12,-78.57 178.82,-115.57 295.92,-110.96zm6.98 37.58c-72.51,0 -127.66,36.99 -165.64,111.15 -30.76,60.97 -46.15,148.53 -46.15,262.49 0,135.35 23.78,235.51 71.34,300.28 33.15,45.4 79.7,67.97 139.26,67.97 40.34,0 73.73,-9.8 100.72,-29.19 34.37,-25 61.12,-64.96 80.1,-119.75 19.18,-54.96 28.79,-126.53 28.79,-214.7 0,-104.97 -9.82,-183.52 -29.19,-235.71 -19.56,-51.96 -44.54,-88.96 -74.71,-110.35 -30.18,-21.4 -64.95,-32.19 -104.52,-32.19zm1219.03 -26.59l0 215.11 -21.02 0c-12.56,-49.58 -26.33,-85.17 -41.54,-106.95 -15.18,-21.59 -36.17,-38.97 -62.74,-51.77 -14.78,-7.01 -40.77,-10.6 -77.92,-10.6l-59.14 0 0 612.53c0,40.59 2.21,65.97 6.8,76.19 4.38,10.19 13.16,19.17 26.17,26.78 13.19,7.61 30.97,11.4 53.53,11.4l26.38 0 0 21.58 -415.59 0 0 -21.58 26.38 0c22.98,0 41.56,-4.21 55.76,-12.39 9.98,-5.41 17.97,-14.8 23.96,-27.99 4.2,-9.42 6.4,-34.19 6.4,-73.99l0 -612.53 -57.35 0c-53.56,0 -92.31,11.39 -116.49,33.97 -34.16,31.61 -55.55,76.79 -64.55,135.35l-22.16 0 0 -215.11 713.12 0zm369.84 45.79l0 323.26 15.76 0c50.35,0 86.92,-15.79 109.51,-47.37 22.56,-31.78 37.15,-78.36 43.34,-140.16l22.18 0 0 416.05 -22.18 0c-4.59,-45.4 -14.57,-82.37 -29.57,-111.38 -14.97,-28.78 -32.54,-48.17 -52.34,-58.17 -19.98,-10 -48.75,-14.99 -86.7,-14.99l0 223.7c0,43.59 1.77,70.37 5.6,80.17 3.58,9.81 10.56,17.8 20.78,24.01 10.16,6.18 26.56,9.39 49.12,9.39l47.35 0c74.15,0 133.5,-17.19 178.25,-51.58 44.53,-34.19 76.7,-86.57 96.28,-156.94l21.61 0 -35.78 252.49 -685.93 0 0 -21.58 26.35 0c22.99,0 41.56,-4.21 55.58,-12.39 10.19,-5.41 17.96,-14.8 23.56,-27.99 4.22,-9.42 6.4,-34.19 6.4,-73.99l0 -522.37c0,-35.98 -1.01,-57.98 -3,-66.16 -3.79,-13.81 -10.99,-24.42 -21.58,-31.8 -14.78,-10.99 -35.16,-16.4 -60.96,-16.4l-26.35 0 0 -21.59 664.35 0 0 234.91 -22.16 0c-11.41,-57.37 -27.17,-98.57 -47.77,-123.54 -20.38,-24.99 -49.36,-43.39 -86.92,-54.98 -21.79,-7.01 -62.74,-10.6 -122.88,-10.6l-81.9 0zm1272.92 -63.97l0 275.28 -22.74 0c-17.2,-71.76 -49.18,-126.94 -95.92,-165.15 -46.97,-38.17 -99.92,-57.37 -159.24,-57.37 -49.58,0 -95.12,14.2 -136.28,42.79 -41.35,28.59 -71.74,65.78 -90.69,111.95 -24.58,59 -36.97,124.56 -36.97,196.74 0,71.16 8.99,135.92 26.96,194.31 18,58.37 45.97,102.34 84.35,132.33 38.14,29.8 87.69,44.8 148.62,44.8 49.74,0 95.5,-11.02 137.06,-32.8 41.56,-21.78 85.54,-59.57 131.5,-113.15l0 68.58c-44.56,46.58 -90.92,80.17 -139.07,100.96 -48.14,20.98 -104.51,31.37 -168.85,31.37 -84.71,0 -159.85,-16.98 -225.59,-50.98 -65.71,-33.97 -116.46,-82.75 -152.23,-146.34 -35.75,-63.77 -53.56,-131.53 -53.56,-203.29 0,-75.78 19.8,-147.74 59.34,-215.72 39.76,-67.78 93.13,-120.54 160.46,-158.14 67.34,-37.39 138.86,-56.17 214.58,-56.17 55.74,0 114.68,12.19 176.63,36.39 35.96,13.98 58.76,20.98 68.53,20.98 12.6,0 23.38,-4.61 32.59,-13.78 9.18,-9.21 14.97,-23.6 17.78,-43.59l22.74 0zm393.65 430.6l0 245.9c0,40.59 2.2,65.97 6.77,76.19 4.4,10.19 13.19,19.17 26.38,26.78 12.98,7.61 30.79,11.4 52.95,11.4l26.38 0 0 21.58 -415.2 0 0 -21.58 26.38 0c22.96,0 41.57,-4.21 55.53,-12.39 10.21,-5.41 18.02,-14.8 23.59,-27.99 4.19,-9.42 6.4,-34.19 6.4,-73.99l0 -522.37c0,-40.59 -2.21,-65.97 -6.4,-76.16 -4.41,-10.21 -13,-19.2 -26.17,-26.8 -12.98,-7.58 -30.79,-11.4 -52.95,-11.4l-26.38 0 0 -21.59 415.2 0 0 21.59 -26.38 0c-22.96,0 -41.54,4.2 -55.74,12.41 -10,5.39 -17.99,14.78 -23.99,27.99 -4.17,9.39 -6.37,34.17 -6.37,73.96l0 224.89 280.32 0 0 -224.89c0,-40.59 -2.2,-65.97 -6.4,-76.16 -4.4,-10.21 -13.21,-19.2 -26.38,-26.8 -13.4,-7.58 -31.16,-11.4 -53.34,-11.4l-25.77 0 0 -21.59 414.58 0 0 21.59 -25.77 0c-23.35,0 -41.96,4.2 -55.76,12.41 -9.98,5.39 -17.97,14.78 -23.96,27.99 -4.2,9.39 -6.4,34.17 -6.4,73.96l0 522.37c0,40.59 2.2,65.97 6.4,76.19 4.4,10.19 13.19,19.17 26.38,26.78 13.37,7.61 31.15,11.4 53.34,11.4l25.77 0 0 21.58 -414.58 0 0 -21.58 25.77 0c23.38,0 41.96,-4.21 55.73,-12.39 9.98,-5.41 17.97,-14.8 23.99,-27.99 4.2,-9.42 6.4,-34.19 6.4,-73.99l0 -245.9 -280.32 0z"/>
   </g>
  </g>
 </g>
</svg>
